G04*
G04 #@! TF.GenerationSoftware,Altium Limited,Altium Designer,21.0.9 (235)*
G04*
G04 Layer_Color=65535*
%FSLAX44Y44*%
%MOMM*%
G71*
G04*
G04 #@! TF.SameCoordinates,A0518373-5DC4-4E38-8A05-EEFCEC3494AD*
G04*
G04*
G04 #@! TF.FilePolarity,Positive*
G04*
G01*
G75*
%ADD10C,0.6000*%
%ADD11C,0.2500*%
%ADD12C,0.2000*%
%ADD13C,0.5000*%
%ADD14C,0.2540*%
%ADD15R,0.7620X0.2540*%
D10*
X618230Y634450D02*
G03*
X618230Y634450I-3000J0D01*
G01*
D11*
X592730Y652450D02*
G03*
X592730Y652450I-1250J0D01*
G01*
X676340Y479610D02*
G03*
X676340Y479610I-1250J0D01*
G01*
X534650Y408650D02*
G03*
X534650Y408650I-1250J0D01*
G01*
D12*
X484244Y466761D02*
G03*
X450476Y466761I-16884J25999D01*
G01*
X546752Y457489D02*
G03*
X546755Y418813I-13352J-19339D01*
G01*
X448110Y742910D02*
G03*
X448110Y742910I-20000J0D01*
G01*
X605230Y587450D02*
X662230D01*
X605230Y644450D02*
X662230D01*
Y587450D02*
Y644450D01*
X605230Y587450D02*
Y644450D01*
X610730Y344200D02*
Y365700D01*
X636730D01*
X671730D02*
X697730D01*
Y344200D02*
Y365700D01*
X443600Y588400D02*
X458100D01*
X443600Y605400D02*
X458100D01*
X526090Y778390D02*
X533090D01*
X526090Y763390D02*
X533090D01*
X450360Y466760D02*
X484360D01*
X481330Y496570D02*
X488950D01*
X485140Y483870D02*
Y500380D01*
X481330Y488950D02*
X488950D01*
X485140D02*
X488950Y496570D01*
X481330D02*
X485140Y488950D01*
X649280Y409060D02*
X656280D01*
X649280Y424060D02*
X656280D01*
X671090Y464860D02*
Y469860D01*
X642090Y464860D02*
Y469860D01*
X671090D01*
X642090Y464860D02*
X671090D01*
X442330Y574920D02*
X456830D01*
X442330Y557920D02*
X456830D01*
X711080Y483210D02*
Y490210D01*
X696080Y483210D02*
Y490210D01*
X527440Y495670D02*
Y510170D01*
X544440Y495670D02*
Y510170D01*
X546750Y418814D02*
Y457486D01*
X585080Y706510D02*
X599580D01*
X585080Y723510D02*
X599580D01*
X760730Y594360D02*
Y619760D01*
X754380D02*
X760730Y626110D01*
Y638810D01*
X754380Y645160D02*
X760730Y638810D01*
X741680Y645160D02*
X754380D01*
X735330Y638810D02*
X741680Y645160D01*
X735330Y626110D02*
Y638810D01*
Y626110D02*
X741680Y619760D01*
X735330Y594360D02*
X760730D01*
X735330Y619760D02*
X760730D01*
X735330Y594360D02*
Y619760D01*
X609600Y756920D02*
X615950Y763270D01*
X596900Y756920D02*
X609600D01*
X590550Y763270D02*
X596900Y756920D01*
X590550Y763270D02*
Y775970D01*
X596900Y782320D01*
X609600D01*
X615950Y775970D01*
X641350Y782320D02*
X666750D01*
X635000D02*
X641350Y775970D01*
X622300Y782320D02*
X635000D01*
X615950Y775970D02*
X622300Y782320D01*
X615950Y763270D02*
Y775970D01*
Y763270D02*
X622300Y756920D01*
X635000D01*
X641350Y763270D01*
X666750Y756920D02*
Y782320D01*
X641350Y756920D02*
Y782320D01*
Y756920D02*
X666750D01*
X458110Y732910D02*
Y752910D01*
X422550Y711950D02*
X432710D01*
X398110Y732910D02*
Y752910D01*
X422550Y772910D02*
X432710D01*
X446140Y667630D02*
X460640D01*
X446140Y650630D02*
X460640D01*
X354330Y535940D02*
Y561340D01*
X379730D01*
X354330Y535940D02*
X379730D01*
X354330Y567690D02*
X360680Y561340D01*
X354330Y567690D02*
Y580390D01*
X360680Y586740D01*
X373380D01*
X379730Y580390D01*
Y567690D02*
Y580390D01*
X373380Y561340D02*
X379730Y567690D01*
Y535940D02*
Y561340D01*
X373380Y586740D02*
X379730Y593090D01*
Y605790D01*
X373380Y612140D02*
X379730Y605790D01*
X360680Y612140D02*
X373380D01*
X354330Y605790D02*
X360680Y612140D01*
X354330Y593090D02*
Y605790D01*
Y593090D02*
X360680Y586740D01*
X373380Y612140D02*
X379730Y618490D01*
Y631190D01*
X373380Y637540D02*
X379730Y631190D01*
X360680Y637540D02*
X373380D01*
X354330Y631190D02*
X360680Y637540D01*
X354330Y618490D02*
Y631190D01*
Y618490D02*
X360680Y612140D01*
X373380Y637540D02*
X379730Y643890D01*
Y656590D01*
X373380Y662940D02*
X379730Y656590D01*
X360680Y662940D02*
X373380D01*
X354330Y656590D02*
X360680Y662940D01*
X354330Y643890D02*
Y656590D01*
Y643890D02*
X360680Y637540D01*
X444870Y635880D02*
X459370D01*
X444870Y618880D02*
X459370D01*
D13*
X605730Y364200D02*
D03*
D14*
X563884Y763268D02*
X574041Y748033D01*
Y763268D02*
X563884Y748033D01*
X579119Y760728D02*
X581658Y763268D01*
X586737D01*
X589276Y760728D01*
Y758189D01*
X586737Y755650D01*
X584198D01*
X586737D01*
X589276Y753111D01*
Y750572D01*
X586737Y748033D01*
X581658D01*
X579119Y750572D01*
X354334Y683258D02*
X364491Y668023D01*
Y683258D02*
X354334Y668023D01*
X377187D02*
Y683258D01*
X369569Y675640D01*
X379726D01*
X584534Y360507D02*
X594690Y345272D01*
Y360507D02*
X584534Y345272D01*
X599769D02*
X604847D01*
X602308D01*
Y360507D01*
X599769Y357968D01*
X744224Y662937D02*
X754381Y647702D01*
Y662937D02*
X744224Y647702D01*
X769616D02*
X759459D01*
X769616Y657859D01*
Y660398D01*
X767077Y662937D01*
X761998D01*
X759459Y660398D01*
X572774Y671827D02*
Y659132D01*
X575313Y656592D01*
X580392D01*
X582931Y659132D01*
Y671827D01*
X598166Y656592D02*
X588009D01*
X598166Y666749D01*
Y669288D01*
X595627Y671827D01*
X590548D01*
X588009Y669288D01*
X631193Y505457D02*
Y492762D01*
X633732Y490223D01*
X638811D01*
X641350Y492762D01*
Y505457D01*
X646428Y490223D02*
X651507D01*
X648968D01*
Y505457D01*
X646428Y502918D01*
X468633Y759458D02*
X466093Y761998D01*
X461015D01*
X458476Y759458D01*
Y756919D01*
X461015Y754380D01*
X466093D01*
X468633Y751841D01*
Y749302D01*
X466093Y746762D01*
X461015D01*
X458476Y749302D01*
X473711Y761998D02*
Y746762D01*
X481328D01*
X483868Y749302D01*
Y751841D01*
X481328Y754380D01*
X473711D01*
X481328D01*
X483868Y756919D01*
Y759458D01*
X481328Y761998D01*
X473711D01*
X488946Y746762D02*
X494024D01*
X491485D01*
Y761998D01*
X488946Y759458D01*
X499114Y542293D02*
Y557528D01*
X506732D01*
X509271Y554988D01*
Y549910D01*
X506732Y547371D01*
X499114D01*
X504193D02*
X509271Y542293D01*
X524506D02*
X514349D01*
X524506Y552449D01*
Y554988D01*
X521967Y557528D01*
X516888D01*
X514349Y554988D01*
X542294Y707393D02*
Y722627D01*
X549912D01*
X552451Y720088D01*
Y715010D01*
X549912Y712471D01*
X542294D01*
X547373D02*
X552451Y707393D01*
X557529Y720088D02*
X560068Y722627D01*
X565147D01*
X567686Y720088D01*
Y717549D01*
X565147Y715010D01*
X562607D01*
X565147D01*
X567686Y712471D01*
Y709932D01*
X565147Y707393D01*
X560068D01*
X557529Y709932D01*
X400054Y631193D02*
Y646428D01*
X407672D01*
X410211Y643888D01*
Y638810D01*
X407672Y636271D01*
X400054D01*
X405132D02*
X410211Y631193D01*
X425446Y646428D02*
X415289D01*
Y638810D01*
X420368Y641349D01*
X422907D01*
X425446Y638810D01*
Y633732D01*
X422907Y631193D01*
X417828D01*
X415289Y633732D01*
X401323Y565153D02*
Y580387D01*
X408941D01*
X411480Y577848D01*
Y572770D01*
X408941Y570231D01*
X401323D01*
X406402D02*
X411480Y565153D01*
X416558D02*
X421637D01*
X419098D01*
Y580387D01*
X416558Y577848D01*
X401324Y604523D02*
Y619757D01*
X408942D01*
X411481Y617218D01*
Y612140D01*
X408942Y609601D01*
X401324D01*
X406403D02*
X411481Y604523D01*
X426716Y619757D02*
X421637Y617218D01*
X416559Y612140D01*
Y607062D01*
X419098Y604523D01*
X424177D01*
X426716Y607062D01*
Y609601D01*
X424177Y612140D01*
X416559D01*
X403864Y656592D02*
Y671827D01*
X411482D01*
X414021Y669288D01*
Y664210D01*
X411482Y661671D01*
X403864D01*
X408942D02*
X414021Y656592D01*
X426717D02*
Y671827D01*
X419099Y664210D01*
X429256D01*
X506730Y405132D02*
Y415288D01*
X504191Y417827D01*
X499113D01*
X496573Y415288D01*
Y405132D01*
X499113Y402593D01*
X504191D01*
X501652Y407671D02*
X506730Y402593D01*
X504191D02*
X506730Y405132D01*
X511808Y402593D02*
X516887D01*
X514348D01*
Y417827D01*
X511808Y415288D01*
X439423Y462277D02*
Y447043D01*
X447041D01*
X449580Y449582D01*
Y459738D01*
X447041Y462277D01*
X439423D01*
X454658Y447043D02*
X459737D01*
X457198D01*
Y462277D01*
X454658Y459738D01*
X612141Y419098D02*
X609602Y421637D01*
X604523D01*
X601984Y419098D01*
Y408942D01*
X604523Y406403D01*
X609602D01*
X612141Y408942D01*
X627376Y406403D02*
X617219D01*
X627376Y416559D01*
Y419098D01*
X624837Y421637D01*
X619758D01*
X617219Y419098D01*
X712470Y461008D02*
X709931Y463548D01*
X704853D01*
X702313Y461008D01*
Y450852D01*
X704853Y448312D01*
X709931D01*
X712470Y450852D01*
X717548Y448312D02*
X722627D01*
X720088D01*
Y463548D01*
X717548Y461008D01*
X529591Y755648D02*
X527052Y758187D01*
X521973D01*
X519434Y755648D01*
Y745492D01*
X521973Y742952D01*
X527052D01*
X529591Y745492D01*
X534669Y755648D02*
X537208Y758187D01*
X542287D01*
X544826Y755648D01*
Y753109D01*
X542287Y750570D01*
X539748D01*
X542287D01*
X544826Y748031D01*
Y745492D01*
X542287Y742952D01*
X537208D01*
X534669Y745492D01*
D15*
X485146Y495302D02*
D03*
M02*
