G04*
G04 #@! TF.GenerationSoftware,Altium Limited,Altium Designer,21.0.9 (235)*
G04*
G04 Layer_Physical_Order=1*
G04 Layer_Color=255*
%FSLAX44Y44*%
%MOMM*%
G71*
G04*
G04 #@! TF.SameCoordinates,A0518373-5DC4-4E38-8A05-EEFCEC3494AD*
G04*
G04*
G04 #@! TF.FilePolarity,Positive*
G04*
G01*
G75*
%ADD14C,0.2540*%
%ADD16O,0.6000X1.9500*%
%ADD17O,1.9500X0.6000*%
%ADD18R,0.4000X1.4000*%
%ADD19R,2.1000X1.6000*%
%ADD20R,1.8000X1.9000*%
%ADD21R,1.7500X1.9000*%
%ADD22R,1.0000X1.5000*%
%ADD23R,1.1000X1.7000*%
%ADD24R,0.7000X1.1500*%
%ADD25R,1.7000X1.1000*%
%ADD26R,1.5000X1.0000*%
%ADD43O,1.6000X1.2000*%
%ADD44R,1.0500X1.0500*%
%ADD45C,1.0500*%
%ADD46R,2.0000X2.0000*%
%ADD47C,2.0000*%
%ADD48R,2.0000X2.0000*%
%ADD49C,1.2700*%
G36*
X784860Y781050D02*
Y332740D01*
X759460Y307340D01*
X337820D01*
X314960Y330200D01*
Y784860D01*
X353060Y822960D01*
X742950Y822960D01*
X784860Y781050D01*
D02*
G37*
%LPC*%
G36*
X407070Y787450D02*
X403910D01*
X400858Y786632D01*
X398122Y785052D01*
X395888Y782818D01*
X394308Y780082D01*
X393490Y777030D01*
Y773870D01*
X394308Y770818D01*
X395888Y768082D01*
X398122Y765847D01*
X400858Y764268D01*
X403910Y763450D01*
X407070D01*
X410122Y764268D01*
X412858Y765847D01*
X415093Y768082D01*
X416672Y770818D01*
X417490Y773870D01*
Y777030D01*
X416672Y780082D01*
X415093Y782818D01*
X412858Y785052D01*
X410122Y786632D01*
X407070Y787450D01*
D02*
G37*
G36*
X452070D02*
X448910D01*
X445858Y786632D01*
X443122Y785052D01*
X440887Y782818D01*
X439308Y780082D01*
X438490Y777030D01*
Y773870D01*
X439308Y770818D01*
X440887Y768082D01*
X443122Y765847D01*
X445858Y764268D01*
X447156Y763920D01*
Y721980D01*
X445858Y721632D01*
X443122Y720053D01*
X440887Y717818D01*
X439308Y715082D01*
X438490Y712030D01*
Y708870D01*
X439308Y705818D01*
X440887Y703082D01*
X443122Y700848D01*
X445858Y699268D01*
X447156Y698920D01*
Y678030D01*
X447410Y676754D01*
X448132Y675673D01*
X460802Y663002D01*
X461884Y662280D01*
X462390Y662179D01*
Y649630D01*
X472798D01*
X473120Y649566D01*
X474239D01*
X506212Y617593D01*
X507294Y616870D01*
X508570Y616616D01*
X555491D01*
X555616Y615346D01*
X554984Y615220D01*
X553902Y614497D01*
X543742Y604338D01*
X543020Y603256D01*
X542893Y602621D01*
X542877Y602617D01*
X540973Y601518D01*
X539418Y599963D01*
X538319Y598059D01*
X537750Y595935D01*
Y593737D01*
X538319Y591613D01*
X539418Y589709D01*
X540973Y588154D01*
X542877Y587055D01*
X545001Y586486D01*
X547199D01*
X549323Y587055D01*
X551227Y588154D01*
X552782Y589709D01*
X553881Y591613D01*
X554450Y593737D01*
Y595935D01*
X553881Y598059D01*
X552782Y599963D01*
X551688Y601057D01*
X551507Y602672D01*
X557641Y608806D01*
X558035D01*
X558990Y608616D01*
X580230D01*
X580917Y607549D01*
X580785Y607045D01*
X580020Y605901D01*
X579632Y603950D01*
X580020Y601999D01*
X580785Y600855D01*
X581022Y599950D01*
X580785Y599045D01*
X580020Y597901D01*
X579632Y595950D01*
X580020Y593999D01*
X580785Y592855D01*
X581022Y591950D01*
X580785Y591045D01*
X580020Y589901D01*
X579632Y587950D01*
X580020Y585999D01*
X581125Y584345D01*
X582779Y583240D01*
X584730Y582852D01*
X598230D01*
X600034Y583211D01*
X600559Y582779D01*
X600991Y582254D01*
X600632Y580450D01*
Y566950D01*
X601020Y564999D01*
X602125Y563345D01*
X603779Y562240D01*
X605730Y561852D01*
X607681Y562240D01*
X608825Y563005D01*
X609730Y563242D01*
X610635Y563005D01*
X611779Y562240D01*
X613730Y561852D01*
X615681Y562240D01*
X616825Y563005D01*
X617730Y563242D01*
X618635Y563005D01*
X619779Y562240D01*
X621730Y561852D01*
X623681Y562240D01*
X624825Y563005D01*
X625730Y563242D01*
X626635Y563005D01*
X627779Y562240D01*
X629730Y561852D01*
X631681Y562240D01*
X632825Y563005D01*
X633730Y563242D01*
X634635Y563005D01*
X635779Y562240D01*
X637730Y561852D01*
X639681Y562240D01*
X640825Y563005D01*
X641730Y563242D01*
X642635Y563005D01*
X643779Y562240D01*
X645730Y561852D01*
X647681Y562240D01*
X648825Y563005D01*
X649730Y563242D01*
X650635Y563005D01*
X651779Y562240D01*
X653730Y561852D01*
X655681Y562240D01*
X656825Y563005D01*
X657730Y563242D01*
X658635Y563005D01*
X659606Y562356D01*
Y558911D01*
X640802Y540107D01*
X638953Y541175D01*
X636829Y541744D01*
X634631D01*
X632507Y541175D01*
X630603Y540076D01*
X629048Y538521D01*
X627949Y536617D01*
X627380Y534493D01*
Y532295D01*
X627949Y530171D01*
X629048Y528267D01*
X630603Y526712D01*
X632507Y525613D01*
X634631Y525044D01*
X636829D01*
X638953Y525613D01*
X640857Y526712D01*
X642411Y528267D01*
X643511Y530171D01*
X644080Y532295D01*
Y534017D01*
X644269Y534144D01*
X658386Y548261D01*
X659764Y547843D01*
X659860Y547364D01*
X660583Y546283D01*
X698173Y508692D01*
Y507210D01*
X693080D01*
Y503045D01*
X672316D01*
X671040Y502791D01*
X669959Y502068D01*
X656963Y489072D01*
X656240Y487990D01*
X656114Y487360D01*
X641590D01*
Y478261D01*
X641334Y478210D01*
X640252Y477487D01*
X629995Y467230D01*
X629272Y466149D01*
X629019Y464873D01*
Y426987D01*
X629272Y425711D01*
X629995Y424630D01*
X632280Y422345D01*
Y406060D01*
X638836D01*
Y365700D01*
X637230D01*
Y347700D01*
X671230D01*
Y357108D01*
X671294Y357430D01*
Y362455D01*
X671460Y362657D01*
X672730Y362202D01*
Y345700D01*
X697730D01*
Y365700D01*
X672774D01*
X672730Y365700D01*
X671504Y365806D01*
Y406060D01*
X673280D01*
Y427060D01*
X668152D01*
Y427382D01*
X667898Y428658D01*
X667175Y429740D01*
X659924Y436991D01*
Y446366D01*
X660590Y447360D01*
X661194Y447360D01*
X671590D01*
Y451776D01*
X684980D01*
X686256Y452030D01*
X687337Y452752D01*
X698783Y464198D01*
X699506Y465280D01*
X699691Y466210D01*
X714080D01*
Y470376D01*
X721142D01*
X722418Y470630D01*
X723500Y471353D01*
X724987Y472840D01*
X725710Y473922D01*
X725964Y475198D01*
Y537210D01*
X725710Y538486D01*
X724987Y539568D01*
X724630Y539925D01*
Y540849D01*
X724061Y542973D01*
X722962Y544877D01*
X721407Y546432D01*
X719503Y547531D01*
X717379Y548100D01*
X716455D01*
X708184Y556371D01*
Y582930D01*
X707930Y584206D01*
X707207Y585288D01*
X702188Y590308D01*
X701106Y591030D01*
X699830Y591284D01*
X687230D01*
X686543Y592351D01*
X686675Y592855D01*
X687440Y593999D01*
X687828Y595950D01*
X687440Y597901D01*
X686675Y599045D01*
X686543Y599549D01*
X687230Y600616D01*
X736030D01*
Y595060D01*
X760030D01*
Y619060D01*
X736030D01*
Y607284D01*
X688275D01*
X687876Y607950D01*
X688275Y608616D01*
X716090D01*
X717366Y608870D01*
X718447Y609593D01*
X735858Y627003D01*
X737445Y626794D01*
X738428Y625092D01*
X740662Y622858D01*
X743398Y621278D01*
X746450Y620460D01*
X749610D01*
X752662Y621278D01*
X755398Y622858D01*
X757632Y625092D01*
X759212Y627828D01*
X760030Y630880D01*
Y634040D01*
X759212Y637092D01*
X757632Y639828D01*
X755398Y642062D01*
X752662Y643642D01*
X749610Y644460D01*
X746450D01*
X743398Y643642D01*
X740662Y642062D01*
X738428Y639828D01*
X736848Y637092D01*
X736261Y634902D01*
X735708D01*
X734432Y634648D01*
X733350Y633925D01*
X714709Y615284D01*
X687230D01*
X686543Y616351D01*
X686675Y616855D01*
X687440Y617999D01*
X687828Y619950D01*
X687440Y621901D01*
X686675Y623045D01*
X686438Y623950D01*
X686675Y624855D01*
X687440Y625999D01*
X687828Y627950D01*
X687440Y629901D01*
X686675Y631045D01*
X686543Y631549D01*
X687230Y632616D01*
X713420D01*
X714696Y632870D01*
X715778Y633592D01*
X731338Y649153D01*
X732060Y650234D01*
X732314Y651510D01*
Y655921D01*
X734107Y656956D01*
X735662Y658511D01*
X736761Y660415D01*
X737330Y662539D01*
Y664737D01*
X736761Y666861D01*
X735662Y668765D01*
X734107Y670320D01*
X732203Y671419D01*
X730079Y671988D01*
X727881D01*
X725757Y671419D01*
X723853Y670320D01*
X722298Y668765D01*
X721199Y666861D01*
X720630Y664737D01*
Y662539D01*
X721199Y660415D01*
X722298Y658511D01*
X723853Y656956D01*
X725646Y655921D01*
Y652891D01*
X712039Y639284D01*
X688275D01*
X687876Y639950D01*
X688275Y640616D01*
X704721D01*
X705997Y640870D01*
X707078Y641592D01*
X716097Y650611D01*
X716478Y651181D01*
X717367Y652070D01*
X718090Y653152D01*
X718344Y654428D01*
Y672248D01*
X720137Y673283D01*
X721692Y674838D01*
X722791Y676742D01*
X723360Y678866D01*
Y681064D01*
X722791Y683188D01*
X721692Y685092D01*
X720137Y686647D01*
X718233Y687746D01*
X716109Y688315D01*
X713911D01*
X711787Y687746D01*
X709883Y686647D01*
X708328Y685092D01*
X707229Y683188D01*
X706660Y681064D01*
Y678866D01*
X707229Y676742D01*
X708328Y674838D01*
X709883Y673283D01*
X711676Y672248D01*
Y655809D01*
X711383Y655516D01*
X711002Y654946D01*
X703340Y647284D01*
X686516D01*
X686335Y647555D01*
X684681Y648660D01*
X682730Y649048D01*
X669230D01*
X667426Y648689D01*
X666901Y649121D01*
X666469Y649646D01*
X666828Y651450D01*
Y664950D01*
X666440Y666901D01*
X665335Y668555D01*
X663681Y669660D01*
X661730Y670048D01*
X659779Y669660D01*
X658635Y668895D01*
X658131Y668763D01*
X657064Y669450D01*
Y700131D01*
X667290Y710357D01*
X669289Y709821D01*
X671488D01*
X673612Y710390D01*
X675516Y711489D01*
X677070Y713044D01*
X678170Y714948D01*
X678739Y717072D01*
Y719270D01*
X678170Y721394D01*
X677070Y723298D01*
X675516Y724853D01*
X673612Y725952D01*
X671488Y726521D01*
X669289D01*
X667166Y725952D01*
X665262Y724853D01*
X663707Y723298D01*
X662608Y721394D01*
X662039Y719270D01*
Y717072D01*
X662574Y715072D01*
X651372Y703870D01*
X650650Y702788D01*
X650396Y701512D01*
Y669450D01*
X649329Y668763D01*
X648825Y668895D01*
X647681Y669660D01*
X645730Y670048D01*
X643779Y669660D01*
X642635Y668895D01*
X641730Y668658D01*
X640825Y668895D01*
X639681Y669660D01*
X637730Y670048D01*
X635779Y669660D01*
X634635Y668895D01*
X634131Y668763D01*
X633064Y669450D01*
Y694389D01*
X653867Y715192D01*
X654590Y716274D01*
X654844Y717550D01*
Y757620D01*
X666050D01*
Y781620D01*
X642050D01*
Y757620D01*
X648176D01*
Y718931D01*
X627373Y698128D01*
X626650Y697046D01*
X626396Y695770D01*
Y670495D01*
X625730Y670096D01*
X625064Y670495D01*
Y756843D01*
X626334Y757817D01*
X627070Y757620D01*
X630230D01*
X633282Y758438D01*
X636018Y760018D01*
X638252Y762252D01*
X639832Y764988D01*
X640650Y768040D01*
Y771200D01*
X639832Y774252D01*
X638252Y776988D01*
X636018Y779222D01*
X633282Y780802D01*
X630230Y781620D01*
X627070D01*
X624018Y780802D01*
X621282Y779222D01*
X619048Y776988D01*
X617468Y774252D01*
X616650Y771200D01*
Y768040D01*
X617468Y764988D01*
X619048Y762252D01*
X619456Y761843D01*
X619372Y761760D01*
X618650Y760678D01*
X618396Y759402D01*
Y670495D01*
X617730Y670096D01*
X617064Y670495D01*
Y688020D01*
X616810Y689296D01*
X616088Y690378D01*
X611664Y694801D01*
Y705510D01*
X615330D01*
Y724510D01*
X601330D01*
Y705510D01*
X604996D01*
Y693420D01*
X605136Y692715D01*
X603966Y692089D01*
X584918Y711137D01*
X583836Y711860D01*
X583330Y711961D01*
Y718059D01*
X583836Y718160D01*
X584918Y718883D01*
X605607Y739572D01*
X606330Y740654D01*
X606584Y741930D01*
Y758090D01*
X607882Y758438D01*
X610618Y760018D01*
X612852Y762252D01*
X614432Y764988D01*
X615250Y768040D01*
Y771200D01*
X614432Y774252D01*
X612852Y776988D01*
X610618Y779222D01*
X607882Y780802D01*
X604830Y781620D01*
X601670D01*
X598618Y780802D01*
X595882Y779222D01*
X593648Y776988D01*
X592068Y774252D01*
X591720Y772954D01*
X550090D01*
Y781390D01*
X535090D01*
Y760390D01*
X550090D01*
Y766286D01*
X591720D01*
X592068Y764988D01*
X593648Y762252D01*
X595882Y760018D01*
X598618Y758438D01*
X599916Y758090D01*
Y743311D01*
X581179Y724574D01*
X580060D01*
X579738Y724510D01*
X569330D01*
Y705510D01*
X579738D01*
X580060Y705446D01*
X581179D01*
X602396Y684229D01*
Y668736D01*
X602125Y668555D01*
X601020Y666901D01*
X600632Y664950D01*
Y651450D01*
X600991Y649646D01*
X600559Y649121D01*
X600034Y648689D01*
X598230Y649048D01*
X584730D01*
X582779Y648660D01*
X581125Y647555D01*
X580945Y647284D01*
X546151D01*
X521494Y671941D01*
Y674370D01*
X521240Y675646D01*
X521197Y675711D01*
X521373Y676015D01*
X521942Y678139D01*
Y680337D01*
X521373Y682461D01*
X520274Y684365D01*
X518719Y685920D01*
X516815Y687019D01*
X514691Y687588D01*
X512492D01*
X510369Y687019D01*
X508465Y685920D01*
X506910Y684365D01*
X505811Y682461D01*
X505242Y680337D01*
Y678139D01*
X505811Y676015D01*
X506910Y674111D01*
X508465Y672556D01*
X510369Y671457D01*
X512492Y670888D01*
X514691D01*
X515004Y669663D01*
X515080Y669284D01*
X515802Y668203D01*
X542412Y641592D01*
X543494Y640870D01*
X544770Y640616D01*
X580230D01*
X580917Y639548D01*
X580785Y639045D01*
X580020Y637901D01*
X579632Y635950D01*
X580020Y633999D01*
X580785Y632855D01*
X581022Y631950D01*
X580785Y631045D01*
X580020Y629901D01*
X579632Y627950D01*
X580020Y625999D01*
X580785Y624855D01*
X580917Y624351D01*
X580230Y623284D01*
X509951D01*
X477977Y655257D01*
X476896Y655980D01*
X476390Y656081D01*
Y668630D01*
X465982D01*
X465660Y668694D01*
X464541D01*
X453824Y679411D01*
Y698920D01*
X455122Y699268D01*
X457858Y700848D01*
X460092Y703082D01*
X461672Y705818D01*
X462490Y708870D01*
Y712030D01*
X461672Y715082D01*
X460092Y717818D01*
X457858Y720053D01*
X455122Y721632D01*
X453824Y721980D01*
Y763920D01*
X455122Y764268D01*
X457858Y765847D01*
X459601Y767590D01*
X459774Y767556D01*
X509090D01*
Y760390D01*
X524090D01*
Y781390D01*
X509090D01*
Y774224D01*
X462490D01*
Y777030D01*
X461672Y780082D01*
X460092Y782818D01*
X457858Y785052D01*
X455122Y786632D01*
X452070Y787450D01*
D02*
G37*
G36*
X407070Y722450D02*
X403910D01*
X400858Y721632D01*
X398122Y720053D01*
X395888Y717818D01*
X394308Y715082D01*
X393490Y712030D01*
Y708870D01*
X394308Y705818D01*
X395888Y703082D01*
X398122Y700848D01*
X400858Y699268D01*
X403910Y698450D01*
X407070D01*
X410122Y699268D01*
X412858Y700848D01*
X415093Y703082D01*
X416672Y705818D01*
X417490Y708870D01*
Y712030D01*
X416672Y715082D01*
X415093Y717818D01*
X412858Y720053D01*
X410122Y721632D01*
X407070Y722450D01*
D02*
G37*
G36*
X444390Y668630D02*
X430390D01*
Y656081D01*
X429884Y655980D01*
X428802Y655257D01*
X427119Y653574D01*
X378560D01*
X378212Y654872D01*
X376632Y657608D01*
X374398Y659842D01*
X371662Y661422D01*
X368610Y662240D01*
X365450D01*
X362398Y661422D01*
X359662Y659842D01*
X357428Y657608D01*
X355848Y654872D01*
X355030Y651820D01*
Y648660D01*
X355848Y645608D01*
X357428Y642872D01*
X359662Y640638D01*
X362398Y639058D01*
X365450Y638240D01*
X368610D01*
X371662Y639058D01*
X374398Y640638D01*
X376632Y642872D01*
X378212Y645608D01*
X378560Y646906D01*
X428500D01*
X429776Y647160D01*
X430858Y647883D01*
X432541Y649566D01*
X433660D01*
X433982Y649630D01*
X444390D01*
Y668630D01*
D02*
G37*
G36*
X443120Y636880D02*
X429120D01*
Y628174D01*
X378560D01*
X378212Y629472D01*
X376632Y632208D01*
X374398Y634442D01*
X371662Y636022D01*
X368610Y636840D01*
X365450D01*
X362398Y636022D01*
X359662Y634442D01*
X357428Y632208D01*
X355848Y629472D01*
X355030Y626420D01*
Y623260D01*
X355848Y620208D01*
X357428Y617472D01*
X359662Y615238D01*
X362398Y613658D01*
X365450Y612840D01*
X368610D01*
X371662Y613658D01*
X374398Y615238D01*
X376632Y617472D01*
X378212Y620208D01*
X378560Y621506D01*
X429120D01*
Y617880D01*
X443120D01*
Y636880D01*
D02*
G37*
G36*
X475120D02*
X461120D01*
Y617880D01*
X471528D01*
X471850Y617816D01*
X472969D01*
X491162Y599622D01*
X492244Y598900D01*
X493520Y598646D01*
X507395D01*
X507657Y597669D01*
X508756Y595765D01*
X510311Y594211D01*
X512215Y593111D01*
X514338Y592542D01*
X516537D01*
X518661Y593111D01*
X520564Y594211D01*
X522119Y595765D01*
X523218Y597669D01*
X523787Y599793D01*
Y601992D01*
X523218Y604115D01*
X522119Y606020D01*
X520564Y607574D01*
X518661Y608673D01*
X516537Y609243D01*
X514338D01*
X512215Y608673D01*
X510311Y607574D01*
X508756Y606020D01*
X508349Y605314D01*
X494901D01*
X476707Y623507D01*
X475626Y624230D01*
X475120Y624331D01*
Y636880D01*
D02*
G37*
G36*
X368610Y611440D02*
X365450D01*
X362398Y610622D01*
X359662Y609042D01*
X357428Y606808D01*
X355848Y604072D01*
X355030Y601020D01*
Y597860D01*
X355848Y594808D01*
X357428Y592072D01*
X359662Y589838D01*
X362398Y588258D01*
X364566Y587677D01*
Y586362D01*
X362190Y585725D01*
X359330Y584075D01*
X356996Y581740D01*
X355345Y578880D01*
X354490Y575691D01*
Y575310D01*
X367030D01*
X379570D01*
Y575691D01*
X378715Y578880D01*
X377065Y581740D01*
X374730Y584075D01*
X371870Y585725D01*
X369494Y586362D01*
Y587677D01*
X371662Y588258D01*
X374398Y589838D01*
X376632Y592072D01*
X378212Y594808D01*
X378560Y596106D01*
X427850D01*
Y587400D01*
X441850D01*
Y606400D01*
X427850D01*
Y602774D01*
X378560D01*
X378212Y604072D01*
X376632Y606808D01*
X374398Y609042D01*
X371662Y610622D01*
X368610Y611440D01*
D02*
G37*
G36*
X473850Y606400D02*
X459850D01*
Y587400D01*
X470258D01*
X470580Y587336D01*
X471699D01*
X481002Y578032D01*
X482084Y577310D01*
X483360Y577056D01*
X504855D01*
X505117Y576079D01*
X506216Y574175D01*
X507771Y572621D01*
X509674Y571521D01*
X511798Y570952D01*
X513997D01*
X516120Y571521D01*
X518024Y572621D01*
X519579Y574175D01*
X520678Y576079D01*
X521247Y578203D01*
Y580402D01*
X520678Y582525D01*
X519579Y584430D01*
X518024Y585984D01*
X516120Y587083D01*
X513997Y587653D01*
X511798D01*
X509674Y587083D01*
X507771Y585984D01*
X506216Y584430D01*
X505809Y583724D01*
X484741D01*
X475438Y593027D01*
X474356Y593750D01*
X473850Y593851D01*
Y606400D01*
D02*
G37*
G36*
X441120Y576460D02*
X434850D01*
Y567690D01*
X441120D01*
Y576460D01*
D02*
G37*
G36*
X432310D02*
X426040D01*
Y567690D01*
X432310D01*
Y576460D01*
D02*
G37*
G36*
X441120Y565150D02*
X434850D01*
Y556380D01*
X441120D01*
Y565150D01*
D02*
G37*
G36*
X432310D02*
X426040D01*
Y556380D01*
X432310D01*
Y565150D01*
D02*
G37*
G36*
X379570Y572770D02*
X367030D01*
X354490D01*
Y572389D01*
X355345Y569200D01*
X356996Y566340D01*
X359330Y564006D01*
X362190Y562355D01*
X363849Y561910D01*
X363682Y560640D01*
X355030D01*
Y536640D01*
X379030D01*
Y560640D01*
X370378D01*
X370211Y561910D01*
X371870Y562355D01*
X374730Y564006D01*
X377065Y566340D01*
X378715Y569200D01*
X379570Y572389D01*
Y572770D01*
D02*
G37*
G36*
X535769Y558260D02*
X533571D01*
X531447Y557691D01*
X529543Y556592D01*
X527988Y555037D01*
X526889Y553133D01*
X526320Y551009D01*
Y548811D01*
X526889Y546687D01*
X527988Y544783D01*
X529543Y543228D01*
X531447Y542129D01*
X532606Y541819D01*
Y525920D01*
X526440D01*
Y511920D01*
X545440D01*
Y525920D01*
X539274D01*
Y542926D01*
X539797Y543228D01*
X541352Y544783D01*
X542451Y546687D01*
X543020Y548811D01*
Y551009D01*
X542451Y553133D01*
X541352Y555037D01*
X539797Y556592D01*
X537893Y557691D01*
X535769Y558260D01*
D02*
G37*
G36*
X472580Y575920D02*
X458580D01*
Y556920D01*
X462246D01*
Y512829D01*
X461325Y512448D01*
X459654Y511166D01*
X458372Y509495D01*
X457566Y507548D01*
X457291Y505460D01*
X457566Y503372D01*
X458372Y501426D01*
X459654Y499754D01*
X461325Y498472D01*
X463272Y497666D01*
X465360Y497391D01*
X469360D01*
X471448Y497666D01*
X473395Y498472D01*
X475066Y499754D01*
X476348Y501426D01*
X477154Y503372D01*
X477429Y505460D01*
X477154Y507548D01*
X476348Y509495D01*
X475066Y511166D01*
X473395Y512448D01*
X471448Y513254D01*
X469360Y513529D01*
X468914D01*
Y556920D01*
X472580D01*
Y575920D01*
D02*
G37*
G36*
X545440Y493920D02*
X526440D01*
Y488812D01*
X526118D01*
X524842Y488558D01*
X523760Y487835D01*
X498022Y462098D01*
X497300Y461016D01*
X497046Y459740D01*
Y449580D01*
X497300Y448304D01*
X498022Y447223D01*
X506912Y438332D01*
X507994Y437610D01*
X509270Y437356D01*
X526150D01*
Y437196D01*
X526644Y435352D01*
X527442Y433970D01*
X526972Y432700D01*
X526150D01*
Y428784D01*
X499221D01*
X471964Y456041D01*
Y472480D01*
X473395Y473072D01*
X475066Y474354D01*
X476348Y476026D01*
X477154Y477972D01*
X477429Y480060D01*
X477154Y482148D01*
X476348Y484095D01*
X475066Y485766D01*
X473395Y487048D01*
X471448Y487854D01*
X469360Y488129D01*
X465360D01*
X463272Y487854D01*
X461325Y487048D01*
X459654Y485766D01*
X458372Y484095D01*
X457566Y482148D01*
X457291Y480060D01*
X457566Y477972D01*
X458372Y476026D01*
X459654Y474354D01*
X461325Y473072D01*
X463272Y472266D01*
X465296Y471999D01*
Y454660D01*
X465550Y453384D01*
X466273Y452303D01*
X495482Y423092D01*
X496564Y422370D01*
X497840Y422116D01*
X526150D01*
Y418200D01*
X540650D01*
Y432700D01*
X539828D01*
X539358Y433970D01*
X540156Y435352D01*
X540650Y437196D01*
Y439104D01*
X540156Y440948D01*
X539201Y442602D01*
X538086Y443717D01*
X537948Y444500D01*
X538086Y445283D01*
X539201Y446398D01*
X540156Y448052D01*
X540650Y449896D01*
Y451805D01*
X540156Y453648D01*
X539201Y455302D01*
X537852Y456651D01*
X536198Y457606D01*
X534355Y458100D01*
X532445D01*
X530602Y457606D01*
X528948Y456651D01*
X527599Y455302D01*
X526644Y453648D01*
X526150Y451805D01*
Y449896D01*
X526644Y448052D01*
X527599Y446398D01*
X528703Y445294D01*
X528424Y444273D01*
X528256Y444024D01*
X510651D01*
X503714Y450961D01*
Y458359D01*
X525616Y480261D01*
X526440Y479920D01*
Y479920D01*
X545440D01*
Y493920D01*
D02*
G37*
G36*
X635730Y365700D02*
X610730D01*
Y345700D01*
X635730D01*
Y365700D01*
D02*
G37*
G36*
X705230Y341700D02*
X683230D01*
Y318700D01*
X705230D01*
Y341700D01*
D02*
G37*
G36*
X625230D02*
X603230D01*
Y318700D01*
X625230D01*
Y341700D01*
D02*
G37*
G36*
X654730Y341700D02*
X653730D01*
X653460Y341700D01*
X632230D01*
Y318700D01*
X653460D01*
X653730Y318700D01*
X654730D01*
X655000Y318700D01*
X676230D01*
Y341700D01*
X655000D01*
X654730Y341700D01*
D02*
G37*
%LPD*%
G36*
X658635Y647505D02*
X659779Y646740D01*
X661730Y646352D01*
X663534Y646711D01*
X664059Y646279D01*
X664491Y645754D01*
X664132Y643950D01*
X664520Y641999D01*
X665285Y640855D01*
X665522Y639950D01*
X665285Y639045D01*
X664520Y637901D01*
X664132Y635950D01*
X664520Y633999D01*
X665285Y632855D01*
X665522Y631950D01*
X665285Y631045D01*
X664520Y629901D01*
X664132Y627950D01*
X664520Y625999D01*
X665285Y624855D01*
X665522Y623950D01*
X665285Y623045D01*
X664520Y621901D01*
X664132Y619950D01*
X664520Y617999D01*
X665285Y616855D01*
X665522Y615950D01*
X665285Y615045D01*
X664520Y613901D01*
X664132Y611950D01*
X664520Y609999D01*
X665285Y608855D01*
X665522Y607950D01*
X665285Y607045D01*
X664520Y605901D01*
X664132Y603950D01*
X664520Y601999D01*
X665285Y600855D01*
X665522Y599950D01*
X665285Y599045D01*
X664520Y597901D01*
X664132Y595950D01*
X664520Y593999D01*
X665285Y592855D01*
X665522Y591950D01*
X665285Y591045D01*
X664520Y589901D01*
X664132Y587950D01*
X664491Y586146D01*
X664059Y585621D01*
X663534Y585189D01*
X661730Y585548D01*
X659779Y585160D01*
X658635Y584395D01*
X657730Y584158D01*
X656825Y584395D01*
X655681Y585160D01*
X653730Y585548D01*
X651779Y585160D01*
X650635Y584395D01*
X649730Y584158D01*
X648825Y584395D01*
X647681Y585160D01*
X645730Y585548D01*
X643779Y585160D01*
X642635Y584395D01*
X641730Y584158D01*
X640825Y584395D01*
X639681Y585160D01*
X637730Y585548D01*
X635779Y585160D01*
X634635Y584395D01*
X633730Y584158D01*
X632825Y584395D01*
X631681Y585160D01*
X629730Y585548D01*
X627779Y585160D01*
X626635Y584395D01*
X625730Y584158D01*
X624825Y584395D01*
X623681Y585160D01*
X621730Y585548D01*
X619779Y585160D01*
X618635Y584395D01*
X617730Y584158D01*
X616825Y584395D01*
X615681Y585160D01*
X613730Y585548D01*
X611779Y585160D01*
X610635Y584395D01*
X609730Y584158D01*
X608825Y584395D01*
X607681Y585160D01*
X605730Y585548D01*
X603926Y585189D01*
X603401Y585621D01*
X602969Y586146D01*
X603328Y587950D01*
X602940Y589901D01*
X602175Y591045D01*
X601938Y591950D01*
X602175Y592855D01*
X602940Y593999D01*
X603328Y595950D01*
X602940Y597901D01*
X602175Y599045D01*
X601938Y599950D01*
X602175Y600855D01*
X602940Y601999D01*
X603328Y603950D01*
X602940Y605901D01*
X602175Y607045D01*
X601938Y607950D01*
X602175Y608855D01*
X602940Y609999D01*
X603328Y611950D01*
X602940Y613901D01*
X602175Y615045D01*
X601938Y615950D01*
X602175Y616855D01*
X602940Y617999D01*
X603328Y619950D01*
X602940Y621901D01*
X602175Y623045D01*
X601938Y623950D01*
X602175Y624855D01*
X602940Y625999D01*
X603328Y627950D01*
X602940Y629901D01*
X602175Y631045D01*
X601938Y631950D01*
X602175Y632855D01*
X602940Y633999D01*
X603328Y635950D01*
X602940Y637901D01*
X602175Y639045D01*
X601938Y639950D01*
X602175Y640855D01*
X602940Y641999D01*
X603328Y643950D01*
X602969Y645754D01*
X603401Y646279D01*
X603926Y646711D01*
X605730Y646352D01*
X607681Y646740D01*
X608825Y647505D01*
X609730Y647742D01*
X610635Y647505D01*
X611779Y646740D01*
X613730Y646352D01*
X615681Y646740D01*
X616825Y647505D01*
X617730Y647742D01*
X618635Y647505D01*
X619779Y646740D01*
X621730Y646352D01*
X623681Y646740D01*
X624825Y647505D01*
X625730Y647742D01*
X626635Y647505D01*
X627779Y646740D01*
X629730Y646352D01*
X631681Y646740D01*
X632825Y647505D01*
X633730Y647742D01*
X634635Y647505D01*
X635779Y646740D01*
X637730Y646352D01*
X639681Y646740D01*
X640825Y647505D01*
X641730Y647742D01*
X642635Y647505D01*
X643779Y646740D01*
X645730Y646352D01*
X647681Y646740D01*
X648825Y647505D01*
X649730Y647742D01*
X650635Y647505D01*
X651779Y646740D01*
X653730Y646352D01*
X655681Y646740D01*
X656825Y647505D01*
X657730Y647742D01*
X658635Y647505D01*
D02*
G37*
G36*
X701516Y581549D02*
Y554990D01*
X701770Y553714D01*
X702493Y552632D01*
X709923Y545202D01*
X709598Y544877D01*
X708499Y542973D01*
X707930Y540849D01*
Y538651D01*
X708499Y536527D01*
X709598Y534623D01*
X711153Y533068D01*
X713057Y531969D01*
X715181Y531400D01*
X717379D01*
X718288Y531644D01*
X719296Y530870D01*
Y477044D01*
X714080D01*
Y481210D01*
X693080D01*
Y467925D01*
X683599Y458444D01*
X674677D01*
X673871Y459426D01*
X673904Y459590D01*
X673650Y460866D01*
X672927Y461948D01*
X671846Y462670D01*
X671590Y462721D01*
Y462860D01*
X670892D01*
X670570Y462924D01*
X668320D01*
X667998Y462860D01*
X661194D01*
X660590Y462860D01*
X659924Y463854D01*
Y471860D01*
X671590D01*
Y487360D01*
X666340D01*
X665854Y488533D01*
X673697Y496376D01*
X693080D01*
Y492211D01*
X714080D01*
Y507210D01*
X704842D01*
Y510073D01*
X704588Y511348D01*
X703865Y512430D01*
X666274Y550021D01*
Y557530D01*
Y563732D01*
X666118Y564517D01*
X666440Y564999D01*
X666828Y566950D01*
Y580450D01*
X666469Y582254D01*
X666901Y582779D01*
X667426Y583211D01*
X669230Y582852D01*
X682730D01*
X684681Y583240D01*
X686335Y584345D01*
X686516Y584616D01*
X698449D01*
X701516Y581549D01*
D02*
G37*
G36*
X653256Y463854D02*
X652590Y462860D01*
X651986Y462860D01*
X641590D01*
Y447360D01*
X651986D01*
X652590Y447360D01*
X653256Y446366D01*
Y435610D01*
X653510Y434334D01*
X654232Y433253D01*
X659252Y428233D01*
X658766Y427060D01*
X658280D01*
Y406060D01*
X664836D01*
Y365700D01*
X645504D01*
Y406060D01*
X647280D01*
Y427060D01*
X636995D01*
X635687Y428368D01*
Y463492D01*
X643991Y471796D01*
X644860D01*
X645182Y471860D01*
X653256D01*
Y463854D01*
D02*
G37*
D14*
X668170Y363918D02*
Y414170D01*
X667960Y363708D02*
X668170Y363918D01*
X667230Y356700D02*
X667960Y357430D01*
Y363708D01*
X642170Y363918D02*
Y414170D01*
X641960Y363708D02*
X642170Y363918D01*
X641230Y356700D02*
X641960Y357430D01*
Y363708D01*
X662940Y548640D02*
Y557530D01*
Y548640D02*
X701507Y510073D01*
X641911Y536501D02*
X662940Y557530D01*
X638810Y534670D02*
X639755D01*
X641586Y536501D02*
X641911D01*
X662940Y557530D02*
Y563732D01*
X639755Y534670D02*
X641586Y536501D01*
X701507Y501783D02*
Y510073D01*
X662392Y564280D02*
Y573038D01*
X661730Y573700D02*
X662392Y573038D01*
Y564280D02*
X662940Y563732D01*
X701507Y501783D02*
X703580Y499711D01*
X722630Y475198D02*
Y537210D01*
X704850Y554990D02*
X722630Y537210D01*
X704850Y554990D02*
Y582930D01*
X516672Y675858D02*
Y677962D01*
X518160Y670560D02*
Y674370D01*
X675980Y635950D02*
X713420D01*
X518160Y670560D02*
X544770Y643950D01*
X653730Y658200D02*
Y701512D01*
X516672Y677962D02*
X516890Y678180D01*
X728980Y651510D02*
Y663638D01*
X715010Y654428D02*
Y679965D01*
X516672Y675858D02*
X518160Y674370D01*
X544770Y643950D02*
X591480D01*
X558990Y611950D02*
X591480D01*
X704721Y643950D02*
X713740Y652969D01*
X546100Y598170D02*
Y601980D01*
X556260Y612140D02*
X558800D01*
X653730Y701512D02*
X670389Y718171D01*
X546100Y601980D02*
X556260Y612140D01*
X675980Y643950D02*
X704721D01*
X713740Y653158D02*
X715010Y654428D01*
X558800Y612140D02*
X558990Y611950D01*
X713420Y635950D02*
X728980Y651510D01*
X713740Y652969D02*
Y653158D01*
X721142Y473710D02*
X722630Y475198D01*
X703580Y473710D02*
X721142D01*
X473080Y590670D02*
X483360Y580390D01*
X509270D02*
X510540Y581660D01*
X466850Y594400D02*
Y596900D01*
Y594400D02*
X470580Y590670D01*
X473080D01*
X483360Y580390D02*
X509270D01*
X613730Y658200D02*
Y688020D01*
X608330Y693420D02*
X613730Y688020D01*
X608330Y693420D02*
Y715010D01*
X580060Y708780D02*
X582560D01*
X605730Y685610D01*
Y658200D02*
Y685610D01*
X576330Y712510D02*
X580060Y708780D01*
X576330Y712510D02*
Y715010D01*
Y717510D01*
X582560Y721240D02*
X603250Y741930D01*
X576330Y717510D02*
X580060Y721240D01*
X603250Y741930D02*
Y769620D01*
X580060Y721240D02*
X582560D01*
X621730Y759402D02*
X628650Y766322D01*
X621730Y658200D02*
Y759402D01*
X628650Y766322D02*
Y769620D01*
X534670Y549910D02*
X535940Y548640D01*
Y518920D02*
Y548640D01*
X511810Y601980D02*
X513080Y603250D01*
X747138Y631568D02*
X748030Y632460D01*
X735708Y631568D02*
X747138D01*
X675980Y611950D02*
X716090D01*
X735708Y631568D01*
X656590Y435610D02*
X664818Y427382D01*
Y417522D02*
X665780Y416560D01*
X664818Y417522D02*
Y427382D01*
X656590Y435610D02*
Y479610D01*
X500380Y459740D02*
X526118Y485478D01*
X534498D02*
X535940Y486920D01*
X526118Y485478D02*
X534498D01*
X500380Y449580D02*
Y459740D01*
Y449580D02*
X509270Y440690D01*
X528706D02*
X531246Y438150D01*
X533400D01*
X509270Y440690D02*
X528706D01*
X656590Y479610D02*
Y481860D01*
X659320Y486714D02*
X672316Y499711D01*
X703580D01*
X497840Y425450D02*
X533400D01*
X468630Y454660D02*
X497840Y425450D01*
X467360Y480060D02*
X468630Y478790D01*
Y454660D02*
Y478790D01*
X465580Y507240D02*
X467360Y505460D01*
X465580Y507240D02*
Y566420D01*
X493520Y601980D02*
X511810D01*
X471850Y621150D02*
X474350D01*
X468120Y624880D02*
Y627380D01*
Y624880D02*
X471850Y621150D01*
X474350D02*
X493520Y601980D01*
X469390Y656630D02*
X473120Y652900D01*
X475620D01*
X469390Y656630D02*
Y659130D01*
X475620Y652900D02*
X508570Y619950D01*
X591480D01*
X432310Y599440D02*
X434850Y596900D01*
X367030Y599440D02*
X432310D01*
X367030Y624840D02*
X433580D01*
X436120Y627380D01*
X428500Y650240D02*
X431160Y652900D01*
X433660D02*
X437390Y656630D01*
X367030Y650240D02*
X428500D01*
X431160Y652900D02*
X433660D01*
X437390Y656630D02*
Y659130D01*
X469390D02*
Y661630D01*
X450490Y678030D02*
Y710450D01*
Y678030D02*
X463160Y665360D01*
X465660D01*
X469390Y661630D01*
X450490Y710450D02*
Y775450D01*
X455215D02*
X459774Y770890D01*
X516590D01*
X450490Y775450D02*
X455215D01*
X543860Y769620D02*
X603250D01*
X542590Y770890D02*
X543860Y769620D01*
X659320Y484590D02*
Y486714D01*
X656590Y481860D02*
X659320Y484590D01*
X696426Y466556D02*
Y469480D01*
X700656Y473710D01*
X666090Y455110D02*
X684980D01*
X696426Y466556D01*
X700656Y473710D02*
X703580D01*
X668320Y459590D02*
X670570D01*
X647090Y477360D02*
Y479610D01*
X632353Y464873D02*
X642610Y475130D01*
X644860D01*
X632353Y426987D02*
Y464873D01*
Y426987D02*
X639780Y419560D01*
X644860Y475130D02*
X647090Y477360D01*
X639780Y416560D02*
Y419560D01*
X666090Y455110D02*
Y457360D01*
X668320Y459590D01*
X665780Y416560D02*
X668170Y414170D01*
X639780Y416560D02*
X642170Y414170D01*
X675980Y587950D02*
X699830D01*
X704850Y582930D01*
X744920Y603950D02*
X748030Y607060D01*
X675980Y603950D02*
X744920D01*
X651510Y767080D02*
X654050Y769620D01*
X629730Y695770D02*
X651510Y717550D01*
Y767080D01*
X629730Y658200D02*
Y695770D01*
D16*
X605730Y658200D02*
D03*
X613730D02*
D03*
X621730D02*
D03*
X629730D02*
D03*
X637730D02*
D03*
X645730D02*
D03*
X653730D02*
D03*
X661730D02*
D03*
Y573700D02*
D03*
X653730D02*
D03*
X645730D02*
D03*
X637730D02*
D03*
X629730D02*
D03*
X621730D02*
D03*
X613730D02*
D03*
X605730D02*
D03*
D17*
X675980Y643950D02*
D03*
Y635950D02*
D03*
Y627950D02*
D03*
Y619950D02*
D03*
Y611950D02*
D03*
Y603950D02*
D03*
Y595950D02*
D03*
Y587950D02*
D03*
X591480D02*
D03*
Y595950D02*
D03*
Y603950D02*
D03*
Y611950D02*
D03*
Y619950D02*
D03*
Y627950D02*
D03*
Y635950D02*
D03*
Y643950D02*
D03*
D18*
X641230Y356700D02*
D03*
X647730D02*
D03*
X654230D02*
D03*
X660730D02*
D03*
X667230D02*
D03*
D19*
X623230Y355700D02*
D03*
X685230D02*
D03*
D20*
X614230Y330200D02*
D03*
X694230D02*
D03*
D21*
X642980D02*
D03*
X665480D02*
D03*
D22*
X466850Y596900D02*
D03*
X434850D02*
D03*
X433580Y566420D02*
D03*
X465580D02*
D03*
X608330Y715010D02*
D03*
X576330D02*
D03*
X437390Y659130D02*
D03*
X469390D02*
D03*
X436120Y627380D02*
D03*
X468120D02*
D03*
D23*
X516590Y770890D02*
D03*
X542590D02*
D03*
X665780Y416560D02*
D03*
X639780D02*
D03*
D24*
X666090Y479610D02*
D03*
X656590D02*
D03*
X647090D02*
D03*
Y455110D02*
D03*
X666090D02*
D03*
D25*
X703580Y499711D02*
D03*
Y473710D02*
D03*
D26*
X535940Y486920D02*
D03*
Y518920D02*
D03*
D43*
X467360Y505460D02*
D03*
Y480060D02*
D03*
D44*
X533400Y425450D02*
D03*
D45*
Y438150D02*
D03*
Y450850D02*
D03*
D46*
X748030Y607060D02*
D03*
X367030Y548640D02*
D03*
D47*
X748030Y632460D02*
D03*
X628650Y769620D02*
D03*
X603250D02*
D03*
X450490Y775450D02*
D03*
X405490D02*
D03*
X450490Y710450D02*
D03*
X405490D02*
D03*
X367030Y599440D02*
D03*
Y574040D02*
D03*
Y624840D02*
D03*
Y650240D02*
D03*
D48*
X654050Y769620D02*
D03*
D49*
X635730Y533394D02*
D03*
X716280Y539750D02*
D03*
X513592Y679238D02*
D03*
X670389Y718171D02*
D03*
X546100Y594836D02*
D03*
X728980Y663638D02*
D03*
X715010Y679965D02*
D03*
X512897Y579302D02*
D03*
X534670Y549910D02*
D03*
X515438Y600892D02*
D03*
M02*
