G04*
G04 #@! TF.GenerationSoftware,Altium Limited,Altium Designer,21.0.9 (235)*
G04*
G04 Layer_Color=8388736*
%FSLAX44Y44*%
%MOMM*%
G71*
G04*
G04 #@! TF.SameCoordinates,A0518373-5DC4-4E38-8A05-EEFCEC3494AD*
G04*
G04*
G04 #@! TF.FilePolarity,Negative*
G04*
G01*
G75*
%ADD22R,1.0000X1.5000*%
%ADD26R,1.5000X1.0000*%
%ADD27O,0.8032X2.1532*%
%ADD28O,2.1532X0.8032*%
%ADD29R,0.6032X1.6032*%
%ADD30R,2.3032X1.8032*%
%ADD31R,2.0032X2.1032*%
%ADD32R,1.9532X2.1032*%
%ADD33R,1.3032X1.9032*%
%ADD34R,0.9032X1.3532*%
%ADD35R,1.9032X1.3032*%
%ADD36O,1.8032X1.4032*%
%ADD37R,1.2532X1.2532*%
%ADD38C,1.2532*%
%ADD39R,2.2032X2.2032*%
%ADD40C,2.2032*%
%ADD41R,2.2032X2.2032*%
%ADD42C,1.4732*%
D22*
X466850Y596900D02*
D03*
X434850D02*
D03*
X433580Y566420D02*
D03*
X465580D02*
D03*
X608330Y715010D02*
D03*
X576330D02*
D03*
X437390Y659130D02*
D03*
X469390D02*
D03*
X436120Y627380D02*
D03*
X468120D02*
D03*
D26*
X535940Y486920D02*
D03*
Y518920D02*
D03*
D27*
X605730Y658200D02*
D03*
X613730D02*
D03*
X621730D02*
D03*
X629730D02*
D03*
X637730D02*
D03*
X645730D02*
D03*
X653730D02*
D03*
X661730D02*
D03*
Y573700D02*
D03*
X653730D02*
D03*
X645730D02*
D03*
X637730D02*
D03*
X629730D02*
D03*
X621730D02*
D03*
X613730D02*
D03*
X605730D02*
D03*
D28*
X675980Y643950D02*
D03*
Y635950D02*
D03*
Y627950D02*
D03*
Y619950D02*
D03*
Y611950D02*
D03*
Y603950D02*
D03*
Y595950D02*
D03*
Y587950D02*
D03*
X591480D02*
D03*
Y595950D02*
D03*
Y603950D02*
D03*
Y611950D02*
D03*
Y619950D02*
D03*
Y627950D02*
D03*
Y635950D02*
D03*
Y643950D02*
D03*
D29*
X641230Y356700D02*
D03*
X647730D02*
D03*
X654230D02*
D03*
X660730D02*
D03*
X667230D02*
D03*
D30*
X623230Y355700D02*
D03*
X685230D02*
D03*
D31*
X614230Y330200D02*
D03*
X694230D02*
D03*
D32*
X642980D02*
D03*
X665480D02*
D03*
D33*
X516590Y770890D02*
D03*
X542590D02*
D03*
X665780Y416560D02*
D03*
X639780D02*
D03*
D34*
X666090Y479610D02*
D03*
X656590D02*
D03*
X647090D02*
D03*
Y455110D02*
D03*
X666090D02*
D03*
D35*
X703580Y499711D02*
D03*
Y473710D02*
D03*
D36*
X467360Y505460D02*
D03*
Y480060D02*
D03*
D37*
X533400Y425450D02*
D03*
D38*
Y438150D02*
D03*
Y450850D02*
D03*
D39*
X748030Y607060D02*
D03*
X367030Y548640D02*
D03*
D40*
X748030Y632460D02*
D03*
X628650Y769620D02*
D03*
X603250D02*
D03*
X450490Y775450D02*
D03*
X405490D02*
D03*
X450490Y710450D02*
D03*
X405490D02*
D03*
X367030Y599440D02*
D03*
Y574040D02*
D03*
Y624840D02*
D03*
Y650240D02*
D03*
D41*
X654050Y769620D02*
D03*
D42*
X716280Y539750D02*
D03*
M02*
