G04*
G04 #@! TF.GenerationSoftware,Altium Limited,Altium Designer,21.0.9 (235)*
G04*
G04 Layer_Color=16711935*
%FSLAX44Y44*%
%MOMM*%
G71*
G04*
G04 #@! TF.SameCoordinates,A0518373-5DC4-4E38-8A05-EEFCEC3494AD*
G04*
G04*
G04 #@! TF.FilePolarity,Negative*
G04*
G01*
G75*
%ADD33R,1.3032X1.9032*%
%ADD35R,1.9032X1.3032*%
%ADD36O,1.8032X1.4032*%
%ADD37R,1.2532X1.2532*%
%ADD38C,1.2532*%
%ADD39R,2.2032X2.2032*%
%ADD40C,2.2032*%
%ADD41R,2.2032X2.2032*%
%ADD42C,1.4732*%
D33*
X680119Y640080D02*
D03*
X706120D02*
D03*
D35*
X717550Y603250D02*
D03*
Y577250D02*
D03*
X582930Y601311D02*
D03*
Y575310D02*
D03*
X648970Y576580D02*
D03*
Y602580D02*
D03*
X617220Y576580D02*
D03*
Y602580D02*
D03*
X684530Y577850D02*
D03*
Y603851D02*
D03*
D36*
X467360Y505460D02*
D03*
Y480060D02*
D03*
D37*
X533400Y425450D02*
D03*
D38*
Y438150D02*
D03*
Y450850D02*
D03*
D39*
X748030Y607060D02*
D03*
X367030Y548640D02*
D03*
D40*
X748030Y632460D02*
D03*
X628650Y769620D02*
D03*
X603250D02*
D03*
X450490Y775450D02*
D03*
X405490D02*
D03*
X450490Y710450D02*
D03*
X405490D02*
D03*
X367030Y599440D02*
D03*
Y574040D02*
D03*
Y624840D02*
D03*
Y650240D02*
D03*
D41*
X654050Y769620D02*
D03*
D42*
X716280Y539750D02*
D03*
M02*
