G04*
G04 #@! TF.GenerationSoftware,Altium Limited,Altium Designer,21.0.9 (235)*
G04*
G04 Layer_Color=8421504*
%FSLAX44Y44*%
%MOMM*%
G71*
G04*
G04 #@! TF.SameCoordinates,A0518373-5DC4-4E38-8A05-EEFCEC3494AD*
G04*
G04*
G04 #@! TF.FilePolarity,Positive*
G04*
G01*
G75*
%ADD16O,0.6000X1.9500*%
%ADD17O,1.9500X0.6000*%
%ADD18R,0.4000X1.4000*%
%ADD19R,2.1000X1.6000*%
%ADD20R,1.8000X1.9000*%
%ADD21R,1.7500X1.9000*%
%ADD22R,1.0000X1.5000*%
%ADD23R,1.1000X1.7000*%
%ADD24R,0.7000X1.1500*%
%ADD25R,1.7000X1.1000*%
%ADD26R,1.5000X1.0000*%
D16*
X605730Y658200D02*
D03*
X613730D02*
D03*
X621730D02*
D03*
X629730D02*
D03*
X637730D02*
D03*
X645730D02*
D03*
X653730D02*
D03*
X661730D02*
D03*
Y573700D02*
D03*
X653730D02*
D03*
X645730D02*
D03*
X637730D02*
D03*
X629730D02*
D03*
X621730D02*
D03*
X613730D02*
D03*
X605730D02*
D03*
D17*
X675980Y643950D02*
D03*
Y635950D02*
D03*
Y627950D02*
D03*
Y619950D02*
D03*
Y611950D02*
D03*
Y603950D02*
D03*
Y595950D02*
D03*
Y587950D02*
D03*
X591480D02*
D03*
Y595950D02*
D03*
Y603950D02*
D03*
Y611950D02*
D03*
Y619950D02*
D03*
Y627950D02*
D03*
Y635950D02*
D03*
Y643950D02*
D03*
D18*
X641230Y356700D02*
D03*
X647730D02*
D03*
X654230D02*
D03*
X660730D02*
D03*
X667230D02*
D03*
D19*
X623230Y355700D02*
D03*
X685230D02*
D03*
D20*
X614230Y330200D02*
D03*
X694230D02*
D03*
D21*
X642980D02*
D03*
X665480D02*
D03*
D22*
X466850Y596900D02*
D03*
X434850D02*
D03*
X433580Y566420D02*
D03*
X465580D02*
D03*
X608330Y715010D02*
D03*
X576330D02*
D03*
X437390Y659130D02*
D03*
X469390D02*
D03*
X436120Y627380D02*
D03*
X468120D02*
D03*
D23*
X516590Y770890D02*
D03*
X542590D02*
D03*
X665780Y416560D02*
D03*
X639780D02*
D03*
D24*
X666090Y479610D02*
D03*
X656590D02*
D03*
X647090D02*
D03*
Y455110D02*
D03*
X666090D02*
D03*
D25*
X703580Y499711D02*
D03*
Y473710D02*
D03*
D26*
X535940Y486920D02*
D03*
Y518920D02*
D03*
M02*
