M48
;Layer_Color=9474304
;FILE_FORMAT=4:4
METRIC,LZ
;TYPE=PLATED
T1F00S00C0.7112
T2F00S00C0.8000
T3F00S00C1.1000
T4F00S00C1.2000
%
T01
X0053467Y0054991
X00512897Y00579302
X00515438Y00600892
X005461Y00594836
X00513592Y00679238
X00670389Y00718171
X0071501Y00679965
X0072898Y00663638
X0071628Y0053975
X0063573Y00533394
T02
X0046736Y0048006
Y0050546
X005334Y0045085
Y0043815
Y0042545
T03
X0074803Y0060706
Y0063246
X0065405Y0076962
X0062865
X0060325
X0036703Y0065024
Y0062484
Y0059944
Y0057404
Y0054864
T04
X0040549Y0071045
X0045049
Y0077545
X0040549
M30
